<svg width="14" height="14" viewBox="0 0 14 14" fill="none" xmlns="http://www.w3.org/2000/svg">
<path d="M0.711216 0.711216C0.798302 0.62391 0.901756 0.554642 1.01565 0.50738C1.12955 0.460118 1.25165 0.435791 1.37497 0.435791C1.49828 0.435791 1.62038 0.460118 1.73428 0.50738C1.84818 0.554642 1.95163 0.62391 2.03872 0.711216L6.99997 5.67434L11.9612 0.711216C12.0484 0.624051 12.1519 0.554908 12.2657 0.507735C12.3796 0.460562 12.5017 0.436282 12.625 0.436282C12.7482 0.436282 12.8703 0.460562 12.9842 0.507735C13.0981 0.554908 13.2016 0.624051 13.2887 0.711216C13.3759 0.798381 13.445 0.901861 13.4922 1.01575C13.5394 1.12963 13.5637 1.2517 13.5637 1.37497C13.5637 1.49824 13.5394 1.6203 13.4922 1.73419C13.445 1.84807 13.3759 1.95155 13.2887 2.03872L8.32559 6.99997L13.2887 11.9612C13.3759 12.0484 13.445 12.1519 13.4922 12.2657C13.5394 12.3796 13.5637 12.5017 13.5637 12.625C13.5637 12.7482 13.5394 12.8703 13.4922 12.9842C13.445 13.0981 13.3759 13.2016 13.2887 13.2887C13.2016 13.3759 13.0981 13.445 12.9842 13.4922C12.8703 13.5394 12.7482 13.5637 12.625 13.5637C12.5017 13.5637 12.3796 13.5394 12.2657 13.4922C12.1519 13.445 12.0484 13.3759 11.9612 13.2887L6.99997 8.32559L2.03872 13.2887C1.95155 13.3759 1.84807 13.445 1.73419 13.4922C1.6203 13.5394 1.49824 13.5637 1.37497 13.5637C1.2517 13.5637 1.12963 13.5394 1.01575 13.4922C0.901861 13.445 0.798381 13.3759 0.711216 13.2887C0.624051 13.2016 0.554908 13.0981 0.507735 12.9842C0.460562 12.8703 0.436282 12.7482 0.436282 12.625C0.436282 12.5017 0.460562 12.3796 0.507735 12.2657C0.554908 12.1519 0.624051 12.0484 0.711216 11.9612L5.67434 6.99997L0.711216 2.03872C0.62391 1.95163 0.554642 1.84818 0.50738 1.73428C0.460118 1.62038 0.435791 1.49828 0.435791 1.37497C0.435791 1.25165 0.460118 1.12955 0.50738 1.01565C0.554642 0.901756 0.62391 0.798302 0.711216 0.711216Z" fill="#282A35" fill-opacity="0.6"/>
</svg>
