<svg width="40" height="20" viewBox="0 0 40 20" fill="none" xmlns="http://www.w3.org/2000/svg">
<rect x="0.5" y="0.5" width="39" height="19" rx="9.5" fill="white"/>
<path d="M9.80483 14V7.48H11.3148L13.0148 10.72L13.6548 12.16H13.6948C13.6615 11.8133 13.6215 11.4267 13.5748 11C13.5348 10.5733 13.5148 10.1667 13.5148 9.78V7.48H14.9148V14H13.4048L11.7048 10.75L11.0648 9.33H11.0248C11.0582 9.69 11.0948 10.0767 11.1348 10.49C11.1815 10.9033 11.2048 11.3033 11.2048 11.69V14H9.80483ZM17.2886 14V7.48H21.3686V8.72H18.7586V10.03H20.9786V11.26H18.7586V12.76H21.4686V14H17.2886ZM24.1804 14L22.9704 7.48H24.4804L24.9304 10.53C24.9704 10.87 25.0137 11.2133 25.0604 11.56C25.1071 11.9 25.1504 12.2433 25.1904 12.59H25.2304C25.2971 12.2433 25.3604 11.9 25.4204 11.56C25.4871 11.2133 25.5537 10.87 25.6204 10.53L26.3204 7.48H27.5704L28.2704 10.53C28.3371 10.8633 28.4004 11.2033 28.4604 11.55C28.5271 11.89 28.5937 12.2367 28.6604 12.59H28.7004C28.7471 12.2367 28.7904 11.89 28.8304 11.55C28.8771 11.21 28.9237 10.87 28.9704 10.53L29.4204 7.48H30.8304L29.6704 14H27.8204L27.1804 11.04C27.1271 10.7867 27.0771 10.5333 27.0304 10.28C26.9904 10.02 26.9537 9.77 26.9204 9.53H26.8804C26.8404 9.77 26.7971 10.02 26.7504 10.28C26.7104 10.5333 26.6637 10.7867 26.6104 11.04L26.0004 14H24.1804Z" fill="#282A35"/>
<rect x="0.5" y="0.5" width="39" height="19" rx="9.5" stroke="#282A35"/>
</svg>
